# xmcd CD database file
#
# Track frame offsets:
#	187
#	16992
#	31392
#	44395
#	61500
#	76575
#	94687
#	102900
#	121050
#	142892
#	152645
#	168237
#	186062
#	199282
#	218725
#	235575
#
# Disc length: 3366 seconds
#
# Revision: 3
# Processed by: cddbd v1.5.2PL0 Copyright (c) Steve Scherf et al.
# Submitted via: CDex 1.77
#
DISCID=bb0d2410
DTITLE=Richard Clayderman - ELEANA
DYEAR=1998
DGENRE=Easy Listening
TTITLE0=ELEANA
TTITLE1=LA SORELLINA
TTITLE2=BLUE CONCERTO
TTITLE3=BOULEVARD DES SOLITUDES
TTITLE4=COLIN MAILLARD
TTITLE5=LES YEUX SAPHIR
TTITLE6=DOLLY
TTITLE7=FINLANDIA
TTITLE8=EROICA
TTITLE9=LES POISSONS LUNE
TTITLE10=LES COLOMBES DU TENERE
TTITLE11=DERNIER PRINTEMPS
TTITLE12=REVIVRE SA VIE
TTITLE13=ROSES PASTEL
TTITLE14=ELEANA (Piano Seul)
TTITLE15=L'HEURE DES ADIEUX
EXTD=YEAR: 1998
EXTT0=
EXTT1=
EXTT2=
EXTT3=
EXTT4=
EXTT5=
EXTT6=
EXTT7=
EXTT8=
EXTT9=
EXTT10=
EXTT11=
EXTT12=
EXTT13=
EXTT14=
EXTT15=
PLAYORDER=
